<?xml version="1.0" encoding="UTF-8"?>
<svg width="65px" height="65px" viewBox="0 0 65 65" version="1.1" xmlns="http://www.w3.org/2000/svg" xmlns:xlink="http://www.w3.org/1999/xlink">
    <!-- Generator: Sketch 48.2 (47327) - http://www.bohemiancoding.com/sketch -->
    <title>itau</title>
    <desc>Created with Sketch.</desc>
    <defs></defs>
    <g id="Desktop-HD" stroke="none" stroke-width="1" fill="none" fill-rule="evenodd" transform="translate(-260.000000, -5005.000000)">
        <g id="banks" transform="translate(0.000000, 4668.000000)" fill-rule="nonzero">
            <g id="itau" transform="translate(260.000000, 337.000000)">
                <path d="M10.6968477,0 L53.4127413,0 C56.3882625,0 58.8673167,1.07819291 60.9217649,3.16348908 C63.046981,5.24878527 64.109589,7.8372628 64.109589,10.8570916 L64.109589,54.2143683 C64.109589,57.1627371 63.046981,59.7508442 60.9217649,61.8361405 C58.8673167,63.9214368 56.3882625,65 53.4127413,65 L10.6968477,65 C7.72169117,65 5.1715049,63.9214368 3.11705646,61.8361405 C1.06260801,59.7508442 0,57.1627371 0,54.2143683 L0,10.8570916 C0,7.8372628 1.06260801,5.24878527 3.11705646,3.16348908 C5.1715049,1.07819291 7.72169117,0 10.6968477,0" id="Fill-2" fill="#292D78"></path>
                <path d="M48.1247366,37.7027436 L51.5794703,37.7027436 L55.8101124,33.2926829 L51.156479,33.2926829 L48.1247366,37.7027436 Z M46.8553989,38.7872031 L41.91965,38.7872031 L41.91965,48.2577028 C41.91965,50.7881082 42.5543188,52.6681357 43.7532185,53.8970412 C44.810879,54.9815004 46.2210932,55.4878049 47.9834975,55.4878049 C50.4513718,55.4878049 52.2845776,54.4755685 53.4126761,52.5233178 L53.4834772,52.5233178 L53.4834772,55.1259463 L57.854995,55.1259463 L57.854995,38.7872031 L52.9192464,38.7872031 L52.9192464,48.3302979 C52.9192464,48.7640073 52.8488084,49.1254936 52.77837,49.3421624 C52.2141392,50.7158854 51.226917,51.4388583 49.7462649,51.4388583 C47.8426214,51.4388583 46.8553989,50.0655076 46.8553989,47.390284 L46.8553989,38.7872031 Z M34.1638364,44.2095008 C30.9204169,44.2095008 28.4525424,44.715433 26.7605762,45.7998926 C24.9978087,46.8843517 24.0810244,48.4747435 24.0810244,50.5714398 C24.0810244,51.8725677 24.574454,53.0296223 25.4912383,53.969264 C26.5488988,54.9815004 27.8883116,55.4878049 29.5102029,55.4878049 C31.6959619,55.4878049 33.3178532,54.7644597 34.4459518,53.391109 L34.5868279,53.391109 L34.5868279,55.1259463 L39.0995852,55.1259463 L39.0995852,45.5106287 C39.0995852,43.3417096 38.5353544,41.6790951 37.4776938,40.4498177 C36.2087192,39.076467 34.3047125,38.3534941 31.7664,38.3534941 C29.1576494,38.3534941 26.9718904,38.8594259 25.2799241,39.9438854 L26.1963453,43.1250413 C27.6065593,42.2576224 29.1576494,41.823541 30.9204169,41.823541 C33.1061759,41.823541 34.1638364,42.546514 34.1638364,44.0646829 L34.1638364,44.2095008 Z M22.1069427,38.7872031 L19.0748374,38.7872031 L19.0748374,33.2926829 L14.2803278,33.2926829 L14.2803278,38.7872031 L12.0237677,38.7872031 L12.0237677,42.546514 L14.2803278,42.546514 L14.2803278,49.1254936 C14.2803278,51.3670078 14.7033194,53.0296223 15.6197406,53.969264 C16.5365249,54.9815004 17.8763008,55.4878049 19.497829,55.4878049 C20.5554895,55.4878049 21.4014726,55.342987 22.1773808,55.0537235 L22.1069427,51.2221899 C21.9657035,51.3670078 21.6835881,51.4388583 21.1901584,51.4388583 C20.4146133,51.4388583 19.8503825,51.1499671 19.497829,50.5714398 C19.2157136,50.1377303 19.0748374,49.4147574 19.0748374,48.3302979 L19.0748374,42.546514 L22.1069427,42.546514 L22.1069427,38.7872031 Z M28.6642198,50.1377303 C28.6642198,48.1858523 30.5678634,47.3180612 34.3047125,47.390284 L34.3047125,49.1254936 L34.2342744,50.0655076 C34.0229602,50.7158854 33.5999686,51.2221899 33.0357378,51.5836765 C32.471507,52.0896084 31.7664,52.3066494 30.9908549,52.3066494 C29.4397648,52.3066494 28.6642198,51.5836765 28.6642198,50.1377303 Z M4.69094554,55.1259463 L9.69713247,55.1259463 L9.69713247,33.2926829 L4.69094554,33.2926829 L4.69094554,55.1259463 Z" id="Fill-3" fill="#FFF101"></path>
            </g>
        </g>
    </g>
</svg>