<?xml version="1.0" encoding="UTF-8"?>
<svg width="65px" height="65px" viewBox="0 0 65 65" version="1.1" xmlns="http://www.w3.org/2000/svg" xmlns:xlink="http://www.w3.org/1999/xlink">
    <!-- Generator: Sketch 48.2 (47327) - http://www.bohemiancoding.com/sketch -->
    <title>bradesco</title>
    <desc>Created with Sketch.</desc>
    <defs></defs>
    <g id="Desktop-HD" stroke="none" stroke-width="1" fill="none" fill-rule="evenodd" transform="translate(-398.000000, -5005.000000)">
        <g id="banks" transform="translate(0.000000, 4668.000000)" fill-rule="nonzero">
            <g id="bradesco" transform="translate(398.000000, 337.000000)">
                <path d="M64.1333333,65 L14.0372827,65 C14.0372827,65 0,65 0,50.7725228 L0,0 L50.0956104,0 C50.0956104,0 64.1333333,0 64.1333333,14.2274774 L64.1333333,65" id="Fill-11" fill="#D11F3D"></path>
                <polygon id="Fill-12" fill="#FFFFFF" points="25.9587302 54.1666667 28.9391539 54.1666667 28.9391539 38.6904762 25.9587302 38.6904762"></polygon>
                <polygon id="Fill-13" fill="#FFFFFF" points="32.0666667 54.1666667 36.647619 54.1666667 36.647619 32.5 32.0666667 32.5"></polygon>
                <path d="M23.8698246,17.7025905 C23.8698246,17.7025905 28.9969851,12.6509239 37.6392202,14.3130008 C37.6392202,14.3130008 41.4413015,14.9097779 44.3559562,17.518497 C44.3559562,17.518497 44.7897129,17.9276907 45.1230389,17.5917854 C45.1230389,17.5917854 45.5455404,17.2576251 45.0749881,16.7576933 C45.0749881,16.7576933 42.570281,13.2551172 37.6214718,11.7068991 C37.6214718,11.7068991 30.827248,9.25479047 23.8455827,12.5671657 C23.8455827,12.5671657 19.548707,14.3618597 17.1656423,19.2516811 C17.1656423,19.2516811 13.7683141,20.3575511 11.2216166,21.7984539 C11.2216166,21.7984539 10.4683863,22.0972788 10.7532286,22.6879486 C10.7532286,22.6879486 10.9965133,23.1102295 11.6553733,22.7961363 C11.6553733,22.7961363 14.0206895,21.9738227 16.3007262,21.4608037 C16.3007262,21.4608037 14.4670001,26.2537796 16.3816768,32.1997395 C17.2340391,34.8490289 18.7885505,37.54456 21.164689,39.7113672 C21.164689,39.7113672 21.5512606,40.1214335 21.9737622,39.8409308 C21.9737622,39.8409308 22.3399879,39.5726427 22.0824178,39.1337848 C22.0824178,39.1337848 20.1876541,36.2598312 19.4513066,32.1735652 C18.838333,28.8393779 19.1275041,24.2374754 21.4239906,20.5896311 C21.4239906,20.5896311 30.168388,19.3598687 37.6214718,22.1884531 C37.6214718,22.1884531 50.2822333,26.3510613 47.0952903,34.0725208 C47.0952903,34.0725208 46.1680378,36.7567093 42.674175,39.1804624 C42.674175,39.1804624 42.0884733,39.5246562 42.4066481,40.017172 C42.4066481,40.017172 42.6702789,40.4014999 43.2689669,40.1563326 C43.2689669,40.1563326 48.6207981,38.4009002 50.9302712,34.0681582 C50.9302712,34.0681582 55.6167488,26.8431407 44.5676399,20.9477847 C44.5676399,20.9477847 41.5291782,19.311446 37.6214718,18.4372198 C37.6214718,18.4372198 30.5861278,16.6826599 23.8698246,17.7025905" id="Fill-14" fill="#FFFFFF"></path>
            </g>
        </g>
    </g>
</svg>