<?xml version="1.0" encoding="UTF-8"?>
<svg width="63px" height="65px" viewBox="0 0 63 65" version="1.1" xmlns="http://www.w3.org/2000/svg" xmlns:xlink="http://www.w3.org/1999/xlink">
    <!-- Generator: Sketch 48.2 (47327) - http://www.bohemiancoding.com/sketch -->
    <title>Page 1</title>
    <desc>Created with Sketch.</desc>
    <defs>
        <polygon id="path-1" points="0 0.590463678 62.3829054 0.590463678 62.3829054 64.3432804 0 64.3432804"></polygon>
    </defs>
    <g id="Desktop-HD" stroke="none" stroke-width="1" fill="none" fill-rule="evenodd" transform="translate(-971.000000, -5005.000000)">
        <g id="banks" transform="translate(0.000000, 4668.000000)">
            <g id="Page-1" transform="translate(971.000000, 337.000000)">
                <path d="M47.261697,29.2452727 C45.4167475,30.7822929 43.9992222,31.0436061 43.376798,30.4185556 C42.9690707,30.0095152 42.8902828,29.217697 43.1975556,28.1947677 C44.1745253,24.9493636 44.9341717,21.673101 45.5664444,18.3436566 C45.5710404,18.343 45.5769495,18.3410303 45.582202,18.3370909 C49.2977071,16.6786061 53.027,15.1573434 57.1515455,14.7463333 C55.202202,20.0566364 51.6711919,25.5658788 47.261697,29.2452727 M45.3543737,40.1396667 C43.0281616,39.6498687 41.9146263,38.6538586 41.9868485,37.7471414 C42.0321515,37.1542626 42.5738182,36.5823939 43.5271515,36.1799192 C46.4534646,34.9416364 49.3423535,33.5799192 52.0625051,31.9470404 C52.067101,31.9490101 52.0730101,31.9529495 52.0776061,31.9549192 C55.6814949,33.7105758 59.1461919,35.938303 61.9313434,38.7582525 C56.8659394,40.6419394 50.5963939,41.2466364 45.3543737,40.1396667 M35.7284646,45.9148182 C34.6050808,43.5708788 34.6897778,41.9806768 35.4513939,41.4324444 C35.9510404,41.0719899 36.7454848,41.1402727 37.6725556,41.6602727 C40.5023535,43.2537576 43.4181616,44.7435051 46.4744747,45.9246667 C46.4757879,45.9305758 46.4777576,45.937798 46.4777576,45.9417374 C47.5775051,50.3236566 48.217,54.9222424 47.9340202,59.4321919 C42.8469495,56.2524444 38.2293232,51.1338586 35.7284646,45.9148182 M24.7986162,41.7108283 C26.0611919,39.1495657 27.4091212,38.1850707 28.3355354,38.4536061 C28.9448283,38.6295657 29.3912929,39.3314343 29.5547778,40.4607273 C30.0747778,44.0252222 30.8285152,47.5253737 31.7431111,51.0248687 C31.737202,51.0294646 31.7332626,51.0353737 31.7306364,51.0399697 C28.5633636,55.3260303 25.1676061,59.4518889 20.9078081,62.807596 C20.4042222,55.8834545 21.7212929,47.9587071 24.7986162,41.7108283 M21.5013434,29.9307273 C24.3876061,29.3496667 25.9646768,29.8289596 26.3185657,30.7363333 C26.5509899,31.3344646 26.2627576,32.1315354 25.4459899,32.983101 C22.7442222,35.7938586 20.2676566,38.7503737 17.8882626,41.8270404 L17.866596,41.8270404 C12.0481111,42.2367374 5.99654545,42.0082525 0.319878788,40.657697 C6.10487879,35.7695657 13.9462424,31.4500202 21.5013434,29.9307273 M28.877202,20.3796667 C31.0346768,22.2246162 31.6282121,23.6999192 31.1436667,24.502899 C30.8298283,25.0288081 30.0406364,25.278303 28.8857374,25.148303 C25.012,24.7143131 21.1507374,24.5449192 17.2428586,24.5173434 C17.2402323,24.5114343 17.2349798,24.5055253 17.2303838,24.4996162 C13.5411414,20.312697 10.2038182,15.5939596 8.05750505,10.4996667 C15.3696768,12.1522424 23.2839192,15.6031515 28.877202,20.3796667 M40.3460909,20.533303 C40.3309899,23.1464343 39.6199293,24.4641616 38.7401313,24.5613333 C38.1610404,24.6263333 37.4972525,24.1706768 36.891899,23.2239091 C34.9136667,20.1249192 32.7476566,17.1697172 30.4503333,14.2696667 C30.4503333,14.2644141 30.4516465,14.2585051 30.4542727,14.252596 C31.3465455,9.6750202 32.7752323,5.00880808 35.217,0.950575758 C38.2746263,6.82552525 40.3828586,13.9978485 40.3460909,20.533303" id="Fill-1" fill="#006E30"></path>
                <g id="Group-5" transform="translate(0.000000, 0.066051)">
                    <mask id="mask-2" fill="white">
                        <use xlink:href="#path-1"></use>
                    </mask>
                    <g id="Clip-4"></g>
                    <path d="M46.9827879,5.01130303 C46.7654646,8.50357576 46.5028384,12.0017576 46.0058182,15.4204949 C45.8725354,16.3482222 45.7195556,17.4269596 45.5659192,18.2772121 C45.5705152,18.2772121 45.5770808,18.2732727 45.5829899,18.2732727 C49.2952121,16.6141313 53.0264747,15.0922121 57.1477374,14.6805455 C54.5595556,10.7910505 51.0869798,7.45110101 46.9827879,5.01130303 M61.7128384,25.2479697 C59.3308182,27.115899 56.8824848,28.9273636 54.2923333,30.5090303 C53.5694545,30.9515556 52.7461212,31.486 52.0619798,31.8825657 C52.0665758,31.8838788 52.0724848,31.8871616 52.0770808,31.8897879 C55.6829394,33.6434747 59.143697,35.8705455 61.9295051,38.6924646 C62.5900101,34.0301919 62.5381414,29.8859495 61.7128384,25.2479697 M57.7327374,49.3892323 C54.7657172,48.6722626 51.8085455,47.8568081 48.9708687,46.7905455 C48.1632929,46.4845859 47.2237475,46.1628687 46.4759192,45.8595354 C46.4765758,45.8641313 46.4778889,45.870697 46.479202,45.8766061 C47.5769798,50.2572121 48.2184444,54.8544848 47.9361212,59.3650909 C51.9332929,56.7880707 55.2850606,53.3502929 57.7327374,49.3892323 M36.3818788,63.9019596 C35.0011212,60.5823636 33.6748586,57.2378182 32.6204141,53.865697 C32.3275859,52.9287778 31.9822323,51.8401919 31.7425859,50.9577677 C31.7379899,50.9623636 31.7320808,50.9695859 31.7301111,50.9741818 C28.5648081,55.2595859 25.1697071,59.3834747 20.9105657,62.7418081 C26.0534444,64.1777172 31.048596,64.8520101 36.3818788,63.9019596 M8.99061616,55.4788788 C11.1369293,51.7489293 13.3981414,48.0518081 15.8720808,44.5680707 C16.5286465,43.6429697 17.268596,42.5799899 17.8890505,41.7612525 L17.8673838,41.7612525 C12.0508687,42.1716061 5.99930303,41.9431212 0.321979798,40.5925657 C1.77430303,46.1753434 4.75117172,51.376 8.99061616,55.4788788 M-0.000393939394,25.7121616 C4.56142424,25.181 9.14687879,24.6944848 13.6896566,24.5467576 C14.8622828,24.5093333 16.193798,24.4535253 17.244303,24.4502424 C17.2397071,24.4469596 17.2351111,24.4390808 17.2311717,24.4351414 C13.5412727,20.2469091 10.2059192,15.5301414 8.05960606,10.4365051 C3.98955556,14.7245354 1.21228283,20.0499394 -0.000393939394,25.7121616 M35.2164747,0.886757576 C32.7753636,4.94367677 31.3466768,9.60857576 30.4537475,14.1861515 C30.4524343,14.191404 30.4511212,14.1986263 30.4491515,14.2032222 C29.8365758,13.4448889 29.0230909,12.5276667 28.3205657,11.6931717 C25.6516263,8.52589899 22.704303,5.56150505 19.7208687,2.65094949 C24.6168788,0.775141414 29.9941515,0.161252525 35.2164747,0.886757576" id="Fill-3" fill="#39B54A" mask="url(#mask-2)"></path>
                </g>
            </g>
        </g>
    </g>
</svg>